<?xml version="1.0" encoding="UTF-8" standalone="no"?><svg width="24" height="24" viewBox="0 0 24 24" fill="none" xmlns="http://www.w3.org/2000/svg">
<g clip-path="url(#clip0_11_20)">
<path fill-rule="evenodd" clip-rule="evenodd" d="M18.384 22.779C18.706 23.007 19.121 23.064 19.491 22.924C19.861 22.783 20.133 22.467 20.215 22.084C21.084 18 23.192 7.66303 23.983 3.94803C24.043 3.66803 23.943 3.37703 23.723 3.19003C23.503 3.00303 23.198 2.94903 22.926 3.05003C18.733 4.60203 5.81997 9.44703 0.541971 11.4C0.206971 11.524 -0.0110294 11.846 -2.93924e-05 12.199C0.0119706 12.553 0.249971 12.86 0.592971 12.963C2.95997 13.671 6.06697 14.656 6.06697 14.656C6.06697 14.656 7.51897 19.041 8.27597 21.271C8.37097 21.551 8.58997 21.771 8.87897 21.847C9.16697 21.922 9.47497 21.843 9.68997 21.64C10.906 20.492 12.786 18.717 12.786 18.717C12.786 18.717 16.358 21.336 18.384 22.779ZM7.37397 14.102L9.05297 19.64L9.42597 16.133C9.42597 16.133 15.913 10.282 19.611 6.94703C19.719 6.84903 19.734 6.68503 19.644 6.57003C19.555 6.45503 19.391 6.42803 19.268 6.50603C14.982 9.24303 7.37397 14.102 7.37397 14.102Z" fill="white"/>
</g>
<defs>
<clipPath id="clip0_11_20">
<rect width="24" height="24" fill="white"/>
</clipPath>
</defs>
</svg>
